<svg version="1.1" id="Layer_1" xmlns="http://www.w3.org/2000/svg" xmlns:xlink="http://www.w3.org/1999/xlink" x="0px" y="0px"
	 width="100%" viewBox="100 200 775 500" enable-background="new 0 0 1080 1080" xml:space="preserve">
<path fill="#F5F5F5" opacity="1.000000" stroke="none" 
	d="
M98.906410,554.999023 
	C98.906418,502.872803 98.906418,451.246674 98.906418,399.297943 
	C159.619171,399.297943 220.135605,399.297943 280.923859,399.297943 
	C280.923859,460.912170 280.923859,522.607727 280.923859,584.476562 
	C220.241882,584.476562 159.821182,584.476562 98.906403,584.476562 
	C98.906403,574.754517 98.906403,565.126770 98.906410,554.999023 
M184.500046,407.855560 
	C158.908218,407.855560 133.316376,407.855560 107.842789,407.855560 
	C107.842789,464.150055 107.842789,519.746216 107.842789,575.573486 
	C162.718842,575.573486 217.296600,575.573486 272.169250,575.573486 
	C272.169250,519.638184 272.169250,463.940491 272.169250,407.855560 
	C243.091385,407.855560 214.295715,407.855560 184.500046,407.855560 
z"/>
<path fill="#FAFAFA" opacity="1.000000" stroke="none" 
	d="
M741.286377,504.844055 
	C741.286438,499.977722 741.286438,495.589355 741.286438,491.200958 
	C740.952637,491.123627 740.618835,491.046295 740.285034,490.968933 
	C738.833557,493.467834 737.444580,496.005646 735.916504,498.456757 
	C733.471619,502.378357 729.944336,502.308014 727.454224,498.333618 
	C726.661255,497.067963 725.934753,495.760406 725.187622,494.466339 
	C724.441345,493.173828 723.707397,491.874207 722.011597,490.582275 
	C722.011597,496.203491 721.766113,501.839081 722.095093,507.440948 
	C722.327148,511.391479 720.743713,512.224548 717.181030,512.104004 
	C713.970581,511.995331 711.900940,511.885010 711.991394,507.654358 
	C712.250061,495.554840 712.082336,483.446228 712.082336,471.477966 
	C720.433899,469.438965 721.478699,469.883057 725.253174,476.637634 
	C727.270996,480.248444 729.316956,483.843445 731.713806,488.089844 
	C734.063721,483.894318 736.150574,480.161255 738.244324,476.432037 
	C741.899475,469.921631 742.676025,469.597046 750.793701,471.307709 
	C750.793701,484.515350 750.793701,497.775787 750.793701,511.027252 
	C743.052246,513.732361 741.308777,512.680969 741.286377,504.844055 
z"/>
<path fill="#F8F8F8" opacity="1.000000" stroke="none" 
	d="
M669.399536,472.815186 
	C673.479065,469.381500 678.165833,469.986145 680.680664,473.921539 
	C684.530273,479.945740 688.317871,486.009521 692.147400,492.046600 
	C692.177612,492.094177 692.424377,492.004425 693.141968,491.878174 
	C693.141968,485.135284 693.141968,478.264709 693.141968,471.067932 
	C696.626770,471.067932 699.541992,471.067932 702.984070,471.067932 
	C702.984070,483.898773 703.028320,496.517303 702.895569,509.133972 
	C702.885498,510.089478 701.614807,511.842407 700.934998,511.839966 
	C697.975525,511.829468 694.555725,513.299438 692.399841,509.656677 
	C689.350525,504.504303 686.147827,499.442261 682.976929,494.362732 
	C682.144653,493.029572 681.187622,491.774261 679.370972,490.709473 
	C679.370972,497.561218 679.370972,504.412964 679.370972,511.633728 
	C675.913757,511.633728 673.024902,511.633728 669.346680,511.633728 
	C669.346680,498.789795 669.346680,486.014130 669.399536,472.815186 
z"/>
<path fill="#FAFAFA" opacity="1.000000" stroke="none" 
	d="
M404.080383,491.000305 
	C404.080383,484.194855 404.080383,477.889160 404.080383,471.703949 
	C411.649994,469.445251 412.943848,469.900604 416.650208,475.876770 
	C420.129242,481.486298 423.608276,487.095825 427.087311,492.705353 
	C427.392731,492.669830 427.698120,492.634277 428.003540,492.598724 
	C428.003540,489.067657 428.003540,485.536591 428.003540,482.005524 
	C428.003540,478.523315 428.003540,475.041107 428.003540,471.142883 
	C431.316437,471.142883 434.336151,471.142883 437.344727,471.142883 
	C437.344727,484.868927 437.344727,498.247864 437.344727,511.468994 
	C431.263702,513.288940 427.576416,511.462677 424.859009,506.100433 
	C422.023193,500.504639 418.325623,495.345581 414.013062,490.074341 
	C414.013062,495.923340 413.748047,501.788452 414.102020,507.615967 
	C414.357483,511.821381 412.282043,512.044861 409.008606,512.105164 
	C405.526428,512.169312 403.760376,511.485840 404.001923,507.472626 
	C404.321289,502.166077 404.080414,496.825836 404.080383,491.000305 
z"/>
<path fill="#FCFCFC" opacity="1.000000" stroke="none" 
	d="
M833.419434,486.009949 
	C833.419373,494.805023 833.419373,503.101837 833.419373,511.280365 
	C825.241821,512.958557 824.904114,512.810303 820.916016,506.358582 
	C817.557739,500.925842 814.183411,495.503082 809.853333,490.303619 
	C809.853333,494.859924 809.853394,499.416229 809.853271,503.972534 
	C809.853149,512.920532 809.596375,513.126587 800.259155,511.359100 
	C800.259155,498.040894 800.259155,484.661469 800.259155,471.311462 
	C808.446899,469.847748 808.762085,469.980682 812.881958,476.631836 
	C816.195068,481.980530 819.501343,487.333405 823.615112,493.985260 
	C823.615112,485.543945 823.615112,478.544495 823.615112,471.143066 
	C827.003845,471.143066 829.868713,471.143066 833.419495,471.143066 
	C833.419495,475.975555 833.419495,480.743652 833.419434,486.009949 
z"/>
<path fill="#F8F8F8" opacity="1.000000" stroke="none" 
	d="
M545.522522,510.959808 
	C542.393127,505.410736 536.824097,501.530182 537.136719,494.574615 
	C537.261292,491.802948 537.324951,489.850983 541.022278,489.744659 
	C544.076538,489.656860 546.900940,487.590912 545.867859,484.263672 
	C545.273376,482.349060 542.577393,480.493835 540.443115,479.808533 
	C538.059448,479.043091 535.240540,479.632935 532.164429,479.632935 
	C532.164429,490.521637 532.164429,500.947479 532.164429,511.092377 
	C531.426575,511.534821 531.157349,511.828033 530.866272,511.851593 
	C522.321594,512.543518 522.321106,512.539246 522.320923,504.085297 
	C522.320801,494.921570 522.305786,485.757751 522.333984,476.594116 
	C522.339417,474.818817 522.513794,473.044067 522.622131,471.049255 
	C530.373535,471.049255 537.684082,470.681305 544.936951,471.170044 
	C550.368286,471.536041 554.124390,474.931671 555.552002,480.335388 
	C556.979675,485.739197 555.836792,490.580139 551.654663,494.474121 
	C550.571594,495.482544 549.282959,496.270233 547.785278,497.385254 
	C550.747437,501.877747 553.697021,506.351196 557.612610,512.289673 
	C552.703552,511.835327 549.269348,511.517517 545.522522,510.959808 
z"/>
<path fill="#F8F8F8" opacity="1.000000" stroke="none" 
	d="
M378.028748,470.719177 
	C383.831970,470.719208 389.143250,470.719208 394.883240,470.719208 
	C394.883240,473.547852 394.883240,476.100494 394.883240,479.276520 
	C388.423492,479.276520 381.868378,479.276520 374.992615,479.276520 
	C374.992615,481.791199 374.992615,483.696259 374.992615,486.260101 
	C378.694366,486.260101 382.457428,486.259399 386.220490,486.260254 
	C393.951996,486.261993 394.280762,486.697327 392.418488,494.953735 
	C386.732147,494.953735 380.954041,494.953735 374.920898,494.953735 
	C374.920898,497.730286 374.920898,500.137695 374.920898,503.067596 
	C381.847076,503.067596 388.755859,503.067596 396.044647,503.067596 
	C396.044647,506.160706 396.044647,508.738739 396.044647,511.667419 
	C385.685181,511.667419 375.480652,511.667419 364.995972,511.667419 
	C364.995972,498.146667 364.995972,484.734131 364.995972,470.719177 
	C369.319641,470.719177 373.428192,470.719177 378.028748,470.719177 
z"/>
<path fill="#F6F6F6" opacity="1.000000" stroke="none" 
	d="
M770.272705,500.037598 
	C771.464417,501.404205 772.623779,502.933533 773.849182,502.988403 
	C779.643799,503.247803 785.456482,503.104126 791.702148,503.104126 
	C791.702148,506.178162 791.702148,508.878448 791.702148,511.802307 
	C781.482422,511.802307 771.373962,511.802307 760.914734,511.802307 
	C760.706055,510.452209 760.345093,509.184967 760.339905,507.916290 
	C760.294861,496.930511 760.401245,485.943359 760.259399,474.959229 
	C760.217896,471.745422 761.214783,470.570007 764.539978,470.646027 
	C773.173096,470.843384 781.813721,470.712311 790.767334,470.712311 
	C790.767334,473.703400 790.767334,476.277740 790.767334,479.451691 
	C784.060120,479.451691 777.474792,479.451691 770.591248,479.451691 
	C770.591248,481.925751 770.591248,483.809265 770.591248,486.252594 
	C774.603516,486.252594 778.561157,486.186310 782.515442,486.273865 
	C785.604797,486.342285 789.232056,485.018860 789.178040,490.758667 
	C789.126465,496.238251 785.687805,494.874939 782.789307,494.944824 
	C778.813049,495.040649 774.832764,494.968842 770.510071,494.968842 
	C770.420471,496.674896 770.345642,498.097900 770.272705,500.037598 
z"/>
<path fill="#F8F8F8" opacity="1.000000" stroke="none" 
	d="
M512.093201,479.370361 
	C505.681549,479.477325 499.685944,479.477325 493.302734,479.477325 
	C493.302734,481.730896 493.302734,483.754089 493.302734,486.260162 
	C497.115509,486.260162 500.902039,486.258972 504.688568,486.260437 
	C512.198975,486.263397 512.572693,486.757263 510.729797,494.771057 
	C505.081848,494.771057 499.325684,494.771057 493.243164,494.771057 
	C493.243164,497.572632 493.243164,499.981506 493.243164,503.110870 
	C498.452362,503.110870 503.884979,503.231750 509.308899,503.066772 
	C512.709595,502.963318 514.925110,503.224731 514.945984,507.699219 
	C514.968323,512.488464 512.224609,512.061584 509.111664,512.037476 
	C500.644745,511.972198 492.176971,512.015076 483.325684,512.015076 
	C483.325684,498.180756 483.325684,484.779419 483.325684,470.744385 
	C492.609985,470.744385 501.893768,470.616455 511.170441,470.817291 
	C514.205322,470.882996 514.683044,474.371368 512.093201,479.370361 
z"/>
<path fill="#FAFAFA" opacity="1.000000" stroke="none" 
	d="
M603.549377,492.386139 
	C605.953125,485.957062 608.294739,479.913696 610.355286,473.775940 
	C611.430298,470.573700 613.852234,470.300964 616.313965,470.827240 
	C618.445251,471.282867 621.617188,472.111481 622.225159,473.622040 
	C627.058655,485.631653 631.394714,497.841614 635.854797,510.000641 
	C636.013855,510.434235 635.875000,510.977112 635.875000,511.717468 
	C631.252869,511.864563 625.994507,514.103577 624.613647,506.732727 
	C624.479919,506.019257 622.604553,505.272491 621.482910,505.175598 
	C618.837341,504.947144 616.142090,505.288879 613.497742,505.053162 
	C610.301575,504.768311 608.331787,505.492432 607.269226,508.967224 
	C605.444580,514.934509 600.592224,510.792236 596.257141,512.352295 
	C598.873535,505.136047 601.122070,498.934357 603.549377,492.386139 
M620.160645,493.259430 
	C619.033142,489.998474 617.905640,486.737518 616.442200,482.504974 
	C614.675171,487.729492 613.281738,491.849640 611.765686,496.332153 
	C614.795898,496.332153 617.114868,496.444794 619.402344,496.227173 
	C619.808960,496.188446 620.084900,494.777008 620.160645,493.259430 
z"/>
<path fill="#FAFAFA" opacity="1.000000" stroke="none" 
	d="
M333.191101,471.048981 
	C339.372589,469.066406 345.061218,469.266235 350.437378,472.279663 
	C354.301392,474.445557 356.449127,477.826782 356.788177,482.936310 
	C352.910461,483.182526 349.536957,484.804169 345.970062,480.941864 
	C344.348907,479.186493 340.079529,478.771423 337.447113,479.446747 
	C335.713013,479.891571 333.982910,483.243469 333.623352,485.511292 
	C333.005737,489.406494 333.393921,493.473236 333.485443,497.465088 
	C333.562683,500.834229 335.137726,503.280640 338.603607,503.847656 
	C342.054932,504.412231 345.358734,504.130249 346.889313,500.173187 
	C348.682220,495.537781 352.498810,498.366638 355.403503,497.833862 
	C355.548096,499.915558 356.361603,502.238037 355.714844,504.034882 
	C353.566711,510.002899 345.102112,513.910278 337.718048,512.805786 
	C329.303894,511.547241 324.167755,506.633362 323.742950,499.110260 
	C323.499390,494.796234 323.778595,490.454376 323.590790,486.135132 
	C323.280396,478.997192 326.186432,473.957214 333.191101,471.048981 
z"/>
<path fill="#F6F6F6" opacity="1.000000" stroke="none" 
	d="
M476.795410,475.854767 
	C475.529358,477.370789 474.407135,479.093964 472.968384,479.419952 
	C470.633240,479.949066 468.090576,479.562561 465.182739,479.562561 
	C465.182739,490.565948 465.182739,500.988007 465.182739,511.149200 
	C464.440887,511.565552 464.165497,511.845032 463.870636,511.867401 
	C455.292969,512.518860 455.292572,512.514771 455.292389,504.109772 
	C455.292206,496.145844 455.292328,488.181915 455.292328,479.858032 
	C451.421814,479.637726 447.873779,479.435791 444.139862,479.223267 
	C444.139862,476.350983 444.139862,473.901550 444.139862,470.752289 
	C454.373108,470.752289 464.460236,470.646484 474.534698,470.954742 
	C475.333771,470.979187 476.045044,473.873871 476.795410,475.854767 
z"/>
<path fill="#F5F5F5" opacity="1.000000" stroke="none" 
	d="
M572.793152,510.244629 
	C572.728516,499.992798 572.728516,490.180969 572.728516,480.444580 
	C568.723450,479.639313 564.831238,479.274139 561.375122,477.850311 
	C560.572571,477.519684 561.256592,473.580872 561.256592,471.007568 
	C572.236572,471.007568 582.813416,471.007568 594.894897,471.007568 
	C593.757446,474.262909 593.570740,478.052917 591.747131,479.169525 
	C589.602173,480.482880 586.037231,479.477234 582.534302,479.477234 
	C582.534302,490.471680 582.534302,500.881378 582.534302,512.555481 
	C578.815735,511.836548 575.836792,511.260590 572.793152,510.244629 
z"/>
<path fill="#FAFAFA" opacity="1.000000" stroke="none" 
	d="
M845.339844,479.548462 
	C843.415894,479.479401 841.943909,479.410675 840.096558,479.324402 
	C840.096558,476.520935 840.096558,473.955780 840.096558,471.050293 
	C850.665161,471.050293 861.221313,471.050293 871.737976,471.050293 
	C873.280212,478.732178 873.280212,478.732178 861.011780,479.896057 
	C861.011780,488.976471 860.772095,498.115265 861.117126,507.231934 
	C861.279663,511.525421 859.512756,512.091431 855.874878,512.125488 
	C852.229614,512.159668 850.878113,511.196136 850.986389,507.353363 
	C851.243408,498.231232 851.069092,489.096954 851.069092,479.548737 
	C849.032227,479.548737 847.412048,479.548737 845.339844,479.548462 
z"/>
<path fill="#FCFCFC" opacity="1.000000" stroke="none" 
	d="
M651.912598,470.732391 
	C655.020508,470.732391 657.656250,470.732391 660.647339,470.732391 
	C660.647339,473.559906 660.647339,475.957642 660.647339,478.738159 
	C659.219910,479.052856 657.671082,479.394318 655.747009,479.818512 
	C655.747009,487.282074 655.747009,494.840790 655.747009,502.779114 
	C657.153198,503.090881 658.868225,503.471130 660.843628,503.909088 
	C660.843628,506.399933 660.843628,508.823242 660.843628,511.630524 
	C654.040344,511.630524 647.336121,511.630524 640.235046,511.630524 
	C640.235046,509.064880 640.235046,506.526031 640.235046,503.844238 
	C641.951294,503.521942 643.539124,503.223755 645.332764,502.886902 
	C645.332764,495.201447 645.332764,487.641815 645.332764,479.830933 
	C643.634460,479.514160 642.057312,479.219940 640.213257,478.875977 
	C640.213257,476.426361 640.213257,473.991364 640.213257,470.732391 
	C643.970276,470.732391 647.705322,470.732391 651.912598,470.732391 
z"/>
<path fill="#BABABA" opacity="1.000000" stroke="none" 
	d="
M298.252289,533.960999 
	C298.252319,503.667755 298.263306,473.868225 298.233215,444.068726 
	C298.230530,441.408600 298.061005,438.849060 302.213470,440.209412 
	C302.213470,475.030731 302.213470,509.755585 302.213470,544.473999 
	C298.252045,544.575745 298.252045,544.575745 298.252289,533.960999 
z"/>
<path fill="#272829" opacity="1.000000" stroke="none" 
	d="
M185.000061,407.855560 
	C214.295715,407.855560 243.091385,407.855560 272.169250,407.855560 
	C272.169250,463.940491 272.169250,519.638184 272.169250,575.573486 
	C217.296600,575.573486 162.718842,575.573486 107.842789,575.573486 
	C107.842789,519.746216 107.842789,464.150055 107.842789,407.855560 
	C133.316376,407.855560 158.908218,407.855560 185.000061,407.855560 
M237.087708,556.733398 
	C247.772919,550.473267 255.416290,541.437622 255.836929,528.995300 
	C256.635498,505.374847 256.562195,481.695618 255.921127,458.066040 
	C255.490692,442.199890 240.605606,426.780334 224.773117,426.083649 
	C202.169312,425.088989 179.468979,424.587097 156.876923,425.512299 
	C134.958435,426.409882 121.400513,440.568420 120.745270,462.306519 
	C120.088394,484.099304 120.308327,505.949097 121.042236,527.743652 
	C121.652824,545.875427 137.684845,560.858582 155.738419,561.040649 
	C177.724136,561.262390 199.718521,561.323975 221.698334,560.897522 
	C226.625809,560.801941 231.508392,558.393494 237.087708,556.733398 
M167.506653,418.037964 
	C184.909607,418.037964 202.312561,418.037964 219.715515,418.037964 
	C219.714081,417.774811 219.712646,417.511627 219.711212,417.248474 
	C197.575409,417.248474 175.439590,417.248474 153.303772,417.248474 
	C153.299515,417.511688 153.295273,417.774872 153.291016,418.038086 
	C157.697601,418.038086 162.104187,418.038086 167.506653,418.037964 
M112.005302,465.872650 
	C112.005302,485.806396 112.005302,505.740143 112.005302,525.673889 
	C112.219940,525.672546 112.434578,525.671143 112.649216,525.669800 
	C112.649216,504.305878 112.649216,482.941986 112.649216,461.578064 
	C112.434616,461.577423 112.220016,461.576813 112.005417,461.576172 
	C112.005417,462.718109 112.005417,463.860016 112.005302,465.872650 
z"/>
<path fill="#3C3C3D" opacity="1.000000" stroke="none" 
	d="
M620.290894,493.629425 
	C620.084900,494.777008 619.808960,496.188446 619.402344,496.227173 
	C617.114868,496.444794 614.795898,496.332153 611.765686,496.332153 
	C613.281738,491.849640 614.675171,487.729492 616.442200,482.504974 
	C617.905640,486.737518 619.033142,489.998474 620.290894,493.629425 
z"/>
<path fill="#F4F4F4" opacity="1.000000" stroke="none" 
	d="
M236.749680,556.891602 
	C231.508392,558.393494 226.625809,560.801941 221.698334,560.897522 
	C199.718521,561.323975 177.724136,561.262390 155.738419,561.040649 
	C137.684845,560.858582 121.652824,545.875427 121.042236,527.743652 
	C120.308327,505.949097 120.088394,484.099304 120.745270,462.306519 
	C121.400513,440.568420 134.958435,426.409882 156.876923,425.512299 
	C179.468979,424.587097 202.169312,425.088989 224.773117,426.083649 
	C240.605606,426.780334 255.490692,442.199890 255.921127,458.066040 
	C256.562195,481.695618 256.635498,505.374847 255.836929,528.995300 
	C255.416290,541.437622 247.772919,550.473267 236.749680,556.891602 
M142.761398,479.389557 
	C133.204453,513.466736 159.581772,540.418518 187.141937,540.580811 
	C218.790451,540.767090 242.257812,511.871307 234.402405,481.521545 
	C229.451630,462.394012 213.578491,448.017883 194.041199,446.093353 
	C165.824478,443.313873 148.503616,461.027924 142.761398,479.389557 
z"/>
<path fill="#3C3C3D" opacity="1.000000" stroke="none" 
	d="
M167.008713,418.038025 
	C162.104187,418.038086 157.697601,418.038086 153.291016,418.038086 
	C153.295273,417.774872 153.299515,417.511688 153.303772,417.248474 
	C175.439590,417.248474 197.575409,417.248474 219.711212,417.248474 
	C219.712646,417.511627 219.714081,417.774811 219.715515,418.037964 
	C202.312561,418.037964 184.909607,418.037964 167.008713,418.038025 
z"/>
<path fill="#3C3C3D" opacity="1.000000" stroke="none" 
	d="
M112.005356,465.437317 
	C112.005417,463.860016 112.005417,462.718109 112.005417,461.576172 
	C112.220016,461.576813 112.434616,461.577423 112.649216,461.578064 
	C112.649216,482.941986 112.649216,504.305878 112.649216,525.669800 
	C112.434578,525.671143 112.219940,525.672546 112.005302,525.673889 
	C112.005302,505.740143 112.005302,485.806396 112.005356,465.437317 
z"/>
<path fill="#9C0101" opacity="1.000000" stroke="none" 
	d="
M142.867722,478.998871 
	C148.503616,461.027924 165.824478,443.313873 194.041199,446.093353 
	C213.578491,448.017883 229.451630,462.394012 234.402405,481.521545 
	C242.257812,511.871307 218.790451,540.767090 187.141937,540.580811 
	C159.581772,540.418518 133.204453,513.466736 142.867722,478.998871 
z"/>
</svg>